<svg xmlns="http://www.w3.org/2000/svg" width="500" height="500">
  <path fill="#FFF" d="M475 425c0 27.614-22.386 50-50 50H75c-27.614 0-50-22.386-50-50V75c0-27.614 22.386-50 50-50h350c27.614 0 50 22.386 50 50v350z"/>
  <path fill="#E91E63" d="M323.426 318H289V143.35c0-7.495-2.292-13.85-7.087-18.8-4.803-4.95-10.99-7.55-18.788-7.55h-9c-4.5 0-8.766 1.103-12.815 3.05-4.05 1.955-7.268 4.702-9.667 8L90.363 308.5C86.763 313 85 318.4 85 324.7v4.05c0 7.2 2.508 13.074 7.613 18.025 5.098 4.95 11.212 7.225 18.413 7.225H248v61.6c0 5.702 2.057 10.505 5.96 14.4 3.895 3.895 8.806 5.85 14.51 5.85 5.694 0 10.518-1.955 14.568-5.85 4.05-3.896 5.962-8.698 5.962-14.4V354h34.426c5.098 0 9.45-1.523 13.05-4.975 3.6-3.445 5.4-7.608 5.4-12.713 0-5.098-1.8-9.338-5.4-12.938-3.6-3.6-7.953-5.374-13.05-5.374zM248 318H128.575L248 163.6V318zm161.9-206.975c3.45-5.05 5.175-10.523 5.175-16.425 0-6-1.526-11.3-4.575-15.9-3.052-4.6-7.2-8.175-12.45-10.725s-11.076-3.825-17.475-3.825c-12 0-23.1 2.55-33.3 7.65-2.2 1.2-3.3 3.05-3.3 5.55 0 1.7.548 3.1 1.65 4.2 1.1 1.102 2.448 1.65 4.05 1.65.9 0 1.85-.25 2.85-.75 8.1-3.6 16.65-5.4 25.65-5.4 8.3 0 14.324 1.675 18.074 5.023 3.75 3.352 5.62 7.874 5.62 13.574 0 3.6-1.2 7-3.6 10.2-2.4 3.2-5.4 6.146-9 8.846-3.6 2.7-8.45 5.995-14.55 9.895-7.11 4.6-12.83 8.564-17.18 11.914-4.35 3.352-8.05 7.204-11.1 11.603-3.05 4.4-4.578 9.158-4.578 14.357 0 2.3.75 4.088 2.25 5.537 1.5 1.45 3.4 2 5.7 2h57.9c1.8 0 3.323-.43 4.574-1.63 1.25-1.2 1.875-2.52 1.875-4.32 0-1.8-.625-3.137-1.874-4.388-1.25-1.25-2.772-1.676-4.573-1.676h-52.2c1.4-3 3.878-6.125 7.43-8.976 3.547-2.85 8.823-6.822 15.824-11.524 7.7-5 13.95-9.398 18.75-13.2 4.804-3.797 8.93-8.22 12.38-13.27z"/>
  <path fill="#E91E63" d="M425 25H75c-27.614 0-50 22.386-50 50v350c0 27.614 22.386 50 50 50h350c27.614 0 50-22.386 50-50V75c0-27.614-22.386-50-50-50zm-78.156 334.863c-6.364 6.104-14.467 9.137-23.418 9.137H304v46.6c0 9.777-3.614 18.495-10.6 25.212-6.83 6.567-15.404 10.038-24.943 10.038-9.656 0-18.37-3.54-25.074-10.24-6.7-6.69-10.383-15.34-10.383-25.01V369H111.025c-11.05 0-21.005-3.834-28.862-11.465C74.183 349.8 70 339.973 70 328.75v-4.05c0-9.732 2.867-18.343 8.595-25.534L219.67 118.924c3.834-5.187 8.917-9.394 15.11-12.383 6.1-2.93 12.6-4.54 19.344-4.54h9c11.804 0 21.95 4.27 29.554 12.11C300.16 121.83 304 132.02 304 143.35V303h19.426c9.068 0 17.248 3.36 23.655 9.77 6.41 6.4 9.8 14.47 9.8 23.543 0 9.203-3.47 17.273-10.03 23.55zM407.724 149c4.202 0 7.982 1.314 10.936 4.263 2.957 2.962 4.516 6.5 4.516 10.7 0 4.273-1.604 7.986-4.64 10.902-2.943 2.822-6.68 4.135-10.81 4.135h-57.9c-4.64 0-8.772-1.452-11.956-4.53-3.267-3.155-4.994-7.163-4.994-11.92 0-7.044 2.08-13.614 6.18-19.527 3.56-5.136 7.934-9.72 13.002-13.626 4.535-3.492 10.515-7.646 17.774-12.35 5.938-3.798 10.65-7 14.045-9.547 2.902-2.177 5.324-4.55 7.2-7.05 1.612-2.15 1.8-3.77 1.8-4.8 0-4.007-1.402-5.773-2.623-6.865-1.143-1.02-4.234-2.735-12.078-2.735-7.635 0-14.982 1.533-21.843 4.557-2.185 1.057-4.423 1.593-6.657 1.593-4.014 0-7.617-1.484-10.42-4.29-2.796-2.793-4.28-6.447-4.28-10.56 0-5.78 2.914-10.684 7.995-13.452l.28-.146c11.42-5.708 23.97-8.6 37.33-8.6 7.74 0 14.95 1.595 21.41 4.733 6.69 3.248 12.08 7.912 16.02 13.85 4.035 6.085 6.078 13.12 6.078 20.89 0 7.717-2.27 14.976-6.743 21.525-3.946 5.776-8.73 10.96-14.22 15.305-4.984 3.945-11.503 8.64-19.377 13.753-1.888 1.267-3.645 1.79-5.27 3.79h29.256z"/>
</svg>
