<svg xmlns="http://www.w3.org/2000/svg" width="500" height="500" viewBox="0 0 500 500">
  <circle fill="#FFF" cx="250" cy="173.812" r="173.812"/>
  <g fill="#E91E63">
    <path d="M249 315.362c0 4.127 1.555 7.6 4.378 10.42 2.82 2.818 6.405 4.233 10.53 4.233 4.123 0 7.728-1.415 10.66-4.233 2.932-2.82 4.432-6.293 4.432-10.42V271h24.708c3.688 0 6.838-1.208 9.442-3.703 2.605-2.495 3.908-5.56 3.908-9.252 0-3.69-1.303-6.155-3.908-8.76-2.604-2.604-5.754-3.285-9.442-3.285H279V118.37c0-5.423-1.76-10.173-5.23-13.755-3.474-3.58-8.05-5.614-13.693-5.614h-6.512c-3.257 0-6.344.95-9.272 2.36-2.932 1.42-5.26 3.48-6.996 5.87l-102.322 130.6c-2.605 3.26-3.975 7.2-3.975 11.76v2.93c0 5.21 1.91 9.57 5.603 13.15 3.688 3.59 8.21 5.34 13.42 5.34H249v44.36zM162.72 246L249 133.022V246h-86.28zM320.966 66.598c-1.593.868-2.39 2.208-2.39 4.016 0 1.23.397 2.243 1.196 3.04.794.796 1.77 1.193 2.93 1.193.65 0 1.338-.18 2.063-.543 5.86-2.604 12.046-3.907 18.56-3.907 6.004 0 10.365 1.213 13.078 3.636 2.713 2.425 4.07 5.698 4.07 9.822 0 2.604-.87 5.065-2.604 7.38-1.74 2.315-3.91 4.447-6.52 6.4-2.61 1.955-6.12 4.338-10.53 7.16-5.14 3.33-9.28 6.197-12.43 8.62-3.15 2.426-5.82 5.213-8.03 8.397-2.21 3.185-3.31 6.626-3.31 10.388 0 1.665.54 3.63 1.62 4.68 1.09 1.05 2.46 2.12 4.125 2.12h41.9c1.303 0 2.405-.98 3.31-1.848.904-.87 1.357-2.156 1.357-3.458 0-1.303-.454-1.923-1.357-2.828-.9-.904-2-.865-3.31-.865h-37.77c1.02-3.33 2.81-4.94 5.38-7.01 2.566-2.06 6.384-5.19 11.45-8.59 5.57-3.61 10.094-6.93 13.566-9.68 3.477-2.75 6.46-6.04 8.958-9.7 2.495-3.65 3.74-7.63 3.74-11.9 0-4.34-1.104-8.18-3.31-11.51-2.21-3.32-5.21-5.92-9.01-7.76s-8.014-2.77-12.643-2.77c-8.684 0-16.717 1.84-24.095 5.536z"/>
    <path d="M387.81 279.728c22.57-29.324 36.002-66.048 36.002-105.915C423.812 77.818 345.994 0 250 0S76.188 77.818 76.188 173.813c0 40.765 14.04 78.247 37.54 107.89L252.808 500l135-220.272zm-15.67-211.73c2.918 4.404 4.396 9.494 4.396 15.116 0 5.584-1.642 10.837-4.88 15.576-2.854 4.18-6.315 7.93-10.29 11.074-3.603 2.854-8.32 6.022-14.02 9.722-1.363.917-2.635 1.514-3.81 2.514h21.17c3.038 0 5.774 1.18 7.91 3.313 2.14 2.143 3.267 4.817 3.267 7.856 0 3.09-1.16 5.75-3.355 7.86-2.13 2.04-4.834 2.96-7.822 2.96h-41.894c-3.358 0-6.35-.97-8.652-3.2-2.363-2.287-3.613-5.147-3.613-8.587 0-5.098 1.504-9.83 4.47-14.11 2.576-3.715 5.743-7.023 9.41-9.85 3.28-2.526 7.607-5.526 12.86-8.93 4.297-2.75 7.706-5.06 10.162-6.905 2.1-1.576 3.85-3.29 5.21-5.1 1.16-1.557 1.3-2.727 1.3-3.473 0-2.9-1.02-4.176-1.9-4.966-.83-.74-3.07-1.98-8.74-1.98-5.52 0-10.84 1.11-15.81 3.297-1.58.765-3.2 1.152-4.82 1.152-2.91 0-5.517-1.074-7.54-3.105-2.028-2.02-3.1-4.665-3.1-7.64 0-4.183 2.105-7.73 5.784-9.733l.2-.103c8.26-4.13 17.346-6.224 27.01-6.224 5.602 0 10.813 1.15 15.49 3.422 4.84 2.35 8.736 5.722 11.59 10.02zM128.97 273.526c-5.775-5.597-8.97-12.884-8.97-21.006v-2.93c0-7.043 2.242-13.273 6.387-18.477L228.55 100.695c2.773-3.752 6.493-6.52 10.975-8.685 4.414-2.122 9.16-3.01 14.04-3.01h6.51c8.54 0 15.558 2.812 21.06 8.483 5.414 5.59 7.865 12.688 7.865 20.886V234h14.708c6.563 0 12.48 2.376 17.115 7.012 4.637 4.633 7.088 10.644 7.088 17.208 0 6.66-2.51 12.332-7.25 16.874-4.6 4.416-10.47 6.906-16.94 6.906H289v33.36c0 7.07-2.29 13.38-7.343 18.24-4.943 4.75-10.983 7.26-17.886 7.26-6.98 0-12.85-2.56-17.7-7.41-4.84-4.84-7.07-11.1-7.07-18.098V282h-88.98c-7.99 0-15.36-2.953-21.05-8.475z"/>
  </g>
</svg>
